<svg xmlns="http://www.w3.org/2000/svg" viewBox="0 0 500 500"><g id="freepik--Frame--inject-31"><circle cx="258.87" cy="260.42" r="176.73" transform="translate(-108.32 259.33) rotate(-45)" style="fill:#263238"></circle><circle cx="258.87" cy="260.42" r="176.73" transform="translate(-108.32 259.33) rotate(-45)" style="fill:#fff;opacity:0.54"></circle><circle cx="258.87" cy="260.42" r="176.73" transform="translate(-108.32 259.33) rotate(-45)" style="fill:none;stroke:#263238;stroke-linecap:round;stroke-linejoin:round"></circle><path d="M437.9,260.42c0-3.29,3.91-6.66,3.73-9.91s-4.42-6.22-4.77-9.45,3.17-7,2.65-10.26-5.07-5.7-5.76-8.88,2.39-7.34,1.52-10.48-5.66-5.11-6.7-8.2,1.58-7.55.37-10.58-6.18-4.47-7.55-7.43.75-7.67-.78-10.56-6.63-3.76-8.31-6.56-.09-7.71-1.93-10.41-7-3-9-5.62-.91-7.66-3-10.15-7.28-2.25-9.53-4.62-1.73-7.52-4.1-9.76-7.48-1.46-10-3.58-2.53-7.28-5.13-9.26-7.59-.64-10.3-2.48-3.29-7-6.1-8.66-7.61.18-10.5-1.35-4-6.57-7-8-7.54,1-10.59-.2-4.71-6.09-7.82-7.14-7.39,1.83-10.55.95-5.35-5.54-8.55-6.24-7.14,2.62-10.38,2.09-5.92-4.92-9.18-5.27-6.82,3.37-10.1,3.2-6.41-4.26-9.7-4.26-6.45,4.08-9.69,4.26-6.86-3.55-10.1-3.2-6,4.75-9.18,5.27-7.2-2.79-10.38-2.09S214.1,87,211,87.88s-7.46-2-10.55-.95-4.8,5.93-7.83,7.14S185,92.9,182,94.28s-4.12,6.41-7,7.94-7.71-.33-10.51,1.35-3.4,6.83-6.1,8.66-7.69.5-10.29,2.48-2.64,7.15-5.13,9.26-7.6,1.33-10,3.58-1.86,7.39-4.11,9.76-7.4,2.13-9.52,4.62-1,7.55-3,10.15-7.14,2.92-9,5.62-.23,7.61-1.92,10.42-6.77,3.67-8.31,6.56.6,7.59-.78,10.56-6.34,4.38-7.55,7.42,1.41,7.48.37,10.58-5.82,5-6.7,8.2,2.22,7.28,1.52,10.48-5.24,5.65-5.76,8.89,3,7,2.65,10.25-4.6,6.17-4.77,9.45,3.73,6.62,3.73,9.91-3.91,6.66-3.73,9.91,4.42,6.22,4.77,9.45-3.17,7-2.65,10.26,5.07,5.7,5.76,8.88-2.39,7.34-1.52,10.48,5.66,5.11,6.7,8.2-1.58,7.55-.37,10.58,6.18,4.47,7.55,7.43-.75,7.67.78,10.56,6.63,3.76,8.31,6.56.09,7.71,1.93,10.41,7,3,9,5.62.91,7.66,3,10.15,7.28,2.25,9.53,4.62,1.73,7.52,4.1,9.76,7.48,1.46,10,3.58,2.53,7.28,5.13,9.26,7.59.64,10.3,2.48,3.29,7,6.1,8.66,7.61-.18,10.5,1.35,4,6.57,7,7.95,7.54-1,10.59.2,4.71,6.09,7.82,7.14,7.39-1.83,10.55-1,5.35,5.54,8.55,6.24,7.14-2.62,10.38-2.09,5.92,4.92,9.18,5.27,6.82-3.37,10.1-3.2,6.41,4.26,9.69,4.26,6.46-4.08,9.7-4.26,6.86,3.55,10.1,3.2,6-4.75,9.18-5.27,7.2,2.79,10.38,2.09,5.42-5.37,8.55-6.24,7.46,2,10.55,1,4.8-5.93,7.83-7.14,7.62,1.17,10.58-.2,4.12-6.42,7-7.95,7.71.33,10.51-1.35,3.4-6.82,6.1-8.66,7.69-.5,10.29-2.48,2.64-7.15,5.13-9.26,7.6-1.33,10-3.58,1.86-7.39,4.11-9.76,7.4-2.13,9.52-4.62,1.05-7.55,3-10.15,7.14-2.92,9-5.62.23-7.61,1.92-10.42,6.77-3.67,8.31-6.56-.6-7.58.78-10.56,6.34-4.38,7.55-7.42-1.41-7.48-.37-10.58,5.82-5,6.7-8.2-2.23-7.28-1.52-10.48,5.23-5.64,5.76-8.88-3-7-2.65-10.26,4.6-6.17,4.77-9.45S437.9,263.71,437.9,260.42Z" style="fill:none;stroke:#263238;stroke-miterlimit:10"></path><circle cx="258.87" cy="260.42" r="187.32" transform="translate(-108.32 259.33) rotate(-45)" style="fill:none;stroke:#263238;stroke-miterlimit:10;stroke-width:4px"></circle></g><g id="freepik--Character--inject-31"><path d="M376.88,43.32s-69.64,99.38-69.23,98.29S373,240.06,373,240.06" style="fill:none;stroke:#263238;stroke-linecap:round;stroke-linejoin:round"></path><path d="M436.79,73.78c-12-9.63-26.33-12.22-37.6-16.61s-23-11.66-24.76-18.26-.49-5.55-2-7.36-6.57,4.23,2.71,13.94,23.29,14.28,44,23.22c4.84,2.1,10,4.33,14.13,7.69,8.41,6.81,11.05,20.93,8.64,31-.69,2.86,5.66,4.62,5.66,4.62l.17,29.66-.83,28.53s-6.38,1.61-5.77,4.49,1.63,13.71-2.11,19.81-.64,9.87-21.55,18.34S382.47,225.54,373,235s-4.57,15.65-3,13.88.2-.77,2.15-7.32,13.81-13.55,25.18-17.68,25.8-6.38,38-15.73,14.87-20.87,17.27-36.54l1-27.84h.11l0-2.21.11-3h-.15l-.35-27.85C451.17,95,448.75,83.41,436.79,73.78Z" style="fill:#F56F17;stroke:#263238;stroke-linecap:round;stroke-linejoin:round"></path><line x1="309.87" y1="144.21" x2="464.37" y2="127.33" style="fill:none;stroke:#263238;stroke-linecap:round;stroke-linejoin:round;stroke-width:2px"></line><polygon points="326.79 142.68 313.33 143.72 306.04 137.07 319.94 136 326.79 142.68" style="fill:#F56F17;stroke:#263238;stroke-linecap:round;stroke-linejoin:round"></polygon><polygon points="326.81 142.9 313.35 143.94 307.17 151.63 321.07 150.55 326.81 142.9" style="fill:#F56F17;stroke:#263238;stroke-linecap:round;stroke-linejoin:round"></polygon><polygon points="461.58 127.09 466.43 121.55 485.45 124.98 466.48 132.47 461.58 127.09" style="fill:#263238;stroke:#263238;stroke-linecap:round;stroke-linejoin:round"></polygon><path d="M185,343.65S200.07,360,201.8,364.59s-11.93,11.4-11.15,16.18,5.66,8.63,5.66,8.63l12.22,4.11,16.09,12.16s-3.84,4.87-5.19,6.18-8.06-.44-9.34,1.18a7.92,7.92,0,0,0-.54,9.07c2.29,4.11,8.34,7.34,8.34,7.34a34.89,34.89,0,0,0,6.2-6.08,29.74,29.74,0,0,0,4.75-8.07s5.68-7,5.4-13.84-8.49-8-10.66-8.79-16.67-10.37-16.67-10.37,28.53-11.28,32.64-23.5a47.6,47.6,0,0,0,2.08-22.36s-35.8-12.87-48.86-13.47S185,343.65,185,343.65Z" style="fill:#263238;stroke:#263238;stroke-linecap:round;stroke-linejoin:round"></path><path d="M155.16,276.7s-10.86,3.19-26.41-8.1-29.32-26.31-45.54-20.54-14.15,23.17-17.89,31.33-1.94,8.74-25.26,8.2S11,306.3,15,315s17.23,14.21,17.23,14.21-6.91-8.33-5-13.07,7-6.94,7-6.94-2.68,15.54,5.26,18.33,11.32-2.63,11.32-2.63-9.15-.86-8.34-7.34,11.15-11.88,17.4-10.68,9.82,2.35,17.22,0a26.28,26.28,0,0,0,11.72-8s.8,3.46-4.27,7.29a19.51,19.51,0,0,1-10.71,3.82s17,11.94,28,4.76,12.11-17.74,12.11-17.74l-.2,12s7.51-9,10.21-16,4.6-8.7,9-9.72,16,3.24,16,3.24Z" style="fill:#263238;stroke:#263238;stroke-linecap:round;stroke-linejoin:round"></path><path d="M25.44,305.74c-.48,2.77.15,5.11-.6,7.6" style="fill:none;stroke:#a1a1a1;stroke-linecap:round;stroke-linejoin:round"></path><path d="M109.84,263.77l-.89-.5c-23.66-13.38-32.1-4.12-34.65,3.43s-2,18.37-9.54,23.1-21.8-2.55-32.11,5.82a25.66,25.66,0,0,0-5.36,5.59" style="fill:none;stroke:#a1a1a1;stroke-linecap:round;stroke-linejoin:round"></path><path d="M136.06,277.42c-5.25-2.45-12.91-6.26-23-11.82" style="fill:none;stroke:#a1a1a1;stroke-linecap:round;stroke-linejoin:round"></path><path d="M144.6,281.15s-1.2-.45-3.58-1.48" style="fill:none;stroke:#a1a1a1;stroke-linecap:round;stroke-linejoin:round"></path><path d="M42,301.74c-4.09,2.55-4.88,4.44-4.88,4.44" style="fill:none;stroke:#a1a1a1;stroke-linecap:round;stroke-linejoin:round"></path><path d="M137.24,280.88S106,267.61,93.6,268.5s-6.9,20.17-12.77,24.85-19.5.23-30.76,4.51c-1.81.68-3.37,1.37-4.72,2" style="fill:none;stroke:#a1a1a1;stroke-linecap:round;stroke-linejoin:round"></path><path d="M122.81,280.88c3.48-.81,5.12-.16,5.12-.16" style="fill:none;stroke:#a1a1a1;stroke-linecap:round;stroke-linejoin:round"></path><path d="M81,311.2s13.72,3.43,21.88-7.08,5.43-16.51,13.41-20.69q1.55-.81,2.88-1.35" style="fill:none;stroke:#a1a1a1;stroke-linecap:round;stroke-linejoin:round"></path><path d="M91.79,286.24c.8-4.92,2.25-10.64,4.78-12.13,4.66-2.74,13.91,1.4,19.13,2.5" style="fill:none;stroke:#a1a1a1;stroke-linecap:round;stroke-linejoin:round"></path><path d="M90.92,294s.11-1.88.42-4.49" style="fill:none;stroke:#a1a1a1;stroke-linecap:round;stroke-linejoin:round"></path><path d="M271.37,247.64l-21,16.83s-23.07,7.69-30,6.33-30.47-8.48-46.34-5.45S148.36,276,144.74,291.72,143,342.5,142,348.36,128.8,367,123,370.67s-8.19,3.24-7,8.58,4.48,13.54,4.6,15.5-7.82,26.64-7.82,26.64-9,2.75-10.8,4.84-2,5.76,2.3,12.72,7.63,7.17,10.15,6.58,6.93-17.19,6.93-17.19,3.79-2.21,3.76-5.18a38.2,38.2,0,0,0-1.51-7.93s5.57-27.78,7.91-32,8.09-6.52,11.25-8.59,19.32-3.83,31.54-14,22.1-20.38,24.47-21.6,32.9,13.22,65.92,4.21,42.45-15.52,42.45-15.52l40.83-26.74,28.79-13,10,10.26a19.12,19.12,0,0,1-5.77,8c-4,2.91-6.16,3.42-7.44,5a8.25,8.25,0,0,0-1.32,4.29s-1.84,2.08,1.12,7.69,5,7.12,5,7.12a7.23,7.23,0,0,0,6.09-3.73,77.22,77.22,0,0,0,3.56-7.46s2.08-2.47,1.18-4.91-.73-3.15.25-6,10.51-6.09,8.18-11.84-4.31-4.3-10.62-11.45-7.3-12.88-12.72-11.95-4.52,3.37-11.14,6.24a110.64,110.64,0,0,1-15.74,5s2.23-13.78-7.91-24.34c0,0-28.24-19.93-32.34-23.28s-8.85.4-15.47,3.27-13.56,5.8-13.56,5.8Z" style="fill:#F56F17;stroke:#263238;stroke-linecap:round;stroke-linejoin:round"></path><path d="M198.85,339.1A51.45,51.45,0,0,1,214.18,329" style="fill:none;stroke:#263238;stroke-linecap:round;stroke-linejoin:round"></path><path d="M274.65,282.17c-1,4.64-1.91,10.48-1.32,14.91" style="fill:none;stroke:#263238;stroke-linecap:round;stroke-linejoin:round"></path><path d="M276.7,274.39s-.61,1.89-1.33,4.72" style="fill:none;stroke:#263238;stroke-linecap:round;stroke-linejoin:round"></path><path d="M269.76,290.41c-.31-1.36-.06,8.38,3.4,13.34" style="fill:none;stroke:#263238;stroke-linecap:round;stroke-linejoin:round"></path><path d="M135.19,371s-.1,2,10.67,1.26" style="fill:none;stroke:#263238;stroke-linecap:round;stroke-linejoin:round"></path><path d="M114.5,445.53c1.34-.31,3.22-5.17,4.68-9.65l-.57.12c-8.63,2-12.25-8.69-13.12-11.87a11.28,11.28,0,0,0-3.44,2.1c-1.83,2.08-2,5.76,2.3,12.72S112,446.12,114.5,445.53Z" style="fill:#263238;stroke:#263238;stroke-linecap:round;stroke-linejoin:round"></path><path d="M389.25,314.33c-.9-2.44-.73-3.15.25-6s10.51-6.09,8.18-11.84-4.31-4.3-10.62-11.45-7.3-12.88-12.72-11.95-4.52,3.37-11.14,6.24a110.64,110.64,0,0,1-15.74,5s2.2-13.63-7.76-24.17c.69.81,3.38,4.49,3.14,13-.28,9.77-4.66,19.46-4.66,19.46s-5.05-8.52-6.35-9.75S328.62,302,328.62,302a24.19,24.19,0,0,0,9.15,5.83l10.28-6.74,28.79-13,10,10.26a19.12,19.12,0,0,1-5.77,8c-4,2.91-6.16,3.42-7.44,5a8.25,8.25,0,0,0-1.32,4.29s-1.84,2.08,1.12,7.69,5,7.12,5,7.12a7.23,7.23,0,0,0,6.09-3.73,77.22,77.22,0,0,0,3.56-7.46S390.15,316.77,389.25,314.33Z" style="fill:#263238;stroke:#263238;stroke-linecap:round;stroke-linejoin:round"></path><path d="M276.12,134.59a5.85,5.85,0,0,1-2.11,2.48c-1.55,1-5.48,2.39-7.16,1.89s-11-4.83-16.39-6-11.84,3-11.84,3-8.23-3.67-13.15-3.65-12.43,4.24-16.27,6-7.85,1.83-8.46,6.89,1,10.06,3.75,10.31,4.2,1.71,6,1.95,7.29,3.45,16.78,4.82,12.77,1.05,12.77,1.05,1.23,2.4,2.89,10.51,5,23.44,14.13,34.74,12.69,18.87,13.92,21.27,2.64,6.54,2.56,8.12-2.21,9.69-2.21,9.69,4.74,4,7.66,3.14,5.4-3.59,14.68-7.14c7.12-2.72,7.45-5.4,15.73-.61S339.55,260,339.55,260s-4.11-10.9-4.5-12.6c-1.52-6.52-.19-13.79-.86-20.48-1.07-10.51-3.23-21.44-2-32,1.35-11.49.22-16.37.22-16.37s13.55-1.37,20.94-4.21A176.43,176.43,0,0,0,372,165.16c.59-.36,10.61-2.47,10.61-2.47s4.22.81,11.43-.87,40-14.67,40-14.67,3.74.69,6.48.95,4.22.8,5.81,0,6.24-.11,7.81-2,2.29-4.56,2-5.62a10.86,10.86,0,0,1,0-2.9,2.93,2.93,0,0,0,1.69-3.3,3.93,3.93,0,0,0-2.54-3.22c-.73-.27-4.05-1.07-4.05-1.07s-6.55-3.17-8.89-2.62-9.29,6.19-10.42,7.12a5,5,0,0,1-2.4,1.23c-.63.15-22.65,2.59-31.25,1.23s-14.88,2.35-18.24,4.25a34.85,34.85,0,0,0-4.49,2.84s-10.23-.67-15.26-.17-21.43,5-21.43,5-6.57-5.18-12.11-5.91l-13.88-1c-.69-.07-10.45-.7-10.45-.7s-2.81.43-3.47-4.34.37-16.64-2.12-22.54-10.38-8.1-13.92-2.13-2.45,11.53-2.34,14S276.12,134.59,276.12,134.59Z" style="fill:#fff;stroke:#263238;stroke-linecap:round;stroke-linejoin:round"></path><line x1="231.06" y1="150.61" x2="229.24" y2="148.04" style="fill:none;stroke:#263238;stroke-linecap:round;stroke-linejoin:round"></line><line x1="240.08" y1="163.31" x2="233.18" y2="153.59" style="fill:none;stroke:#263238;stroke-linecap:round;stroke-linejoin:round"></line><path d="M366.13,163.08s8.05-.05,9.73-2.27l3.36-4.45" style="fill:none;stroke:#263238;stroke-linecap:round;stroke-linejoin:round"></path><path d="M335.75,249.56c-8.44-7.32-26.67-23-29.62-24.13-3.85-1.52-25.52,15.08-27.95,16.18-1.09.5-3.1-.37-5-1.47-.63,2.94-1.83,7.5-1.83,7.5s4.74,4,7.66,3.14,5.4-3.59,14.68-7.14c7.12-2.72,7.45-5.4,15.73-.61S339.55,260,339.55,260,337,253.27,335.75,249.56Z" style="fill:#263238;stroke:#263238;stroke-linecap:round;stroke-linejoin:round"></path><path d="M317.75,106.76a65.44,65.44,0,0,1,1.48,8.72c.09,2.73-2.26,3.28-1.77,5.37s2.36,6.6,1.94,8.34-3.43,3-3.43,3-1.31,5-1.07,6,3.14,2.85,1.61,4.58a30.5,30.5,0,0,1-4.6,3.82s-5.12,2.84-8.79,1.22a36.27,36.27,0,0,1-6-3.28,40.29,40.29,0,0,1-1.94-8.35c-.39-4,.86-9.27.21-13.24s-3.65-7.4-5.85-7.44-3,2.36-2.32,6.59a16.53,16.53,0,0,0,2.68,6.8s-5.73,4.91-9.76,5.3l-4,.38s-2.16-6.92-3.6-14.28-3.35-17.92-1.35-21.13,14.25-9.64,19.33-10.27,14.95-.74,17.2.67a32.82,32.82,0,0,0,4.38,2.27s-1.69-3.73,1.36-3.61,6.73,5.31,8.35,9.88S317.75,106.76,317.75,106.76Z" style="fill:#fff;stroke:#263238;stroke-linecap:round;stroke-linejoin:round"></path><path d="M321.79,98.12c-1.62-4.57-5.3-9.77-8.35-9.88s-1.36,3.61-1.36,3.61a32.82,32.82,0,0,1-4.38-2.27c-2.25-1.41-12.12-1.31-17.2-.67s-17.33,7-19.33,10.27-.09,13.77,1.35,21.13,3.6,14.28,3.6,14.28l4-.38c4-.39,9.76-5.3,9.76-5.3a16.53,16.53,0,0,1-2.68-6.8c-.71-4.23.11-6.62,2.32-6.59s5.2,3.46,5.85,7.44-.6,9.21-.21,13.24a40.29,40.29,0,0,0,1.94,8.35,36.27,36.27,0,0,0,6,3.28c3.67,1.62,8.79-1.22,8.79-1.22a30.5,30.5,0,0,0,4.6-3.82c1.53-1.73-1.37-3.53-1.61-4.58s1.07-6,1.07-6a4.87,4.87,0,0,0-4.26-1.76c-2.66.35-4.68,8.24-7.67,8.39s-3.66-6.3-3.94-13.38-.17-9,.1-10.2,1.13-1.09,4.52-1.88,5.29-2,5.11-2.84-3.42-5.25-1-6.64,8.92,2.88,8.92,2.88S323.4,102.69,321.79,98.12Z" style="fill:#263238;stroke:#263238;stroke-linecap:round;stroke-linejoin:round"></path><path d="M279.17,115.5a6.93,6.93,0,0,1-2.88,2.92" style="fill:none;stroke:#a1a1a1;stroke-linecap:round;stroke-linejoin:round"></path><path d="M308.51,108s-3.27,2.21-10.5-1.34-12.85-5.16-15.2-.25c-1.07,2.23-1.73,4.53-2.5,6.54" style="fill:none;stroke:#a1a1a1;stroke-linecap:round;stroke-linejoin:round"></path><path d="M308.83,103.88s-5.57,1.57-14-3.18-12.65-4.33-16,1.39" style="fill:none;stroke:#a1a1a1;stroke-linecap:round;stroke-linejoin:round"></path><path d="M317.75,106.76s2-6.89-.93-10.59-7.34-1.49-5.25,1.23,3.64.6,3.64.6" style="fill:none;stroke:#a1a1a1;stroke-linecap:round;stroke-linejoin:round"></path><path d="M314.4,120.57c-.16,1-.82,1.78-1.48,1.68s-1.06-1-.9-2,.82-1.78,1.48-1.68S314.56,119.54,314.4,120.57Z" style="fill:#263238"></path><path d="M310.49,116.38a12.48,12.48,0,0,1,5.37,1.84" style="fill:none;stroke:#263238;stroke-linecap:round;stroke-linejoin:round"></path><path d="M286.62,138.38c2.08,2.2,10.51,6.17,10.51,6.17" style="fill:none;stroke:#263238;stroke-linecap:round;stroke-linejoin:round"></path><path d="M299.81,146.05s-38.13,21.63-45.15,59.72L259,211s8.1-40.14,46.3-62.45C305.32,148.57,300,142.2,299.81,146.05Z" style="fill:#263238;stroke:#263238;stroke-linecap:round;stroke-linejoin:round"></path><path d="M313.9,194.19a21,21,0,0,1-3.13,2.77" style="fill:none;stroke:#263238;stroke-linecap:round;stroke-linejoin:round"></path><path d="M334.1,165.58s-13.35,15.63-15.65,20.19c-1.18,2.35-1.76,4.21-2.78,6" style="fill:none;stroke:#263238;stroke-linecap:round;stroke-linejoin:round"></path><path d="M332.42,178.5a68.71,68.71,0,0,1-7.55-.71" style="fill:none;stroke:#263238;stroke-linecap:round;stroke-linejoin:round"></path><path d="M429.59,135.66a226.86,226.86,0,0,1-25.34,1.63l4.55,19.55c11.62-4.29,25.26-9.69,25.26-9.69L431.23,135A4.47,4.47,0,0,1,429.59,135.66Z" style="fill:#263238;stroke:#263238;stroke-linecap:round;stroke-linejoin:round"></path><path d="M327.32,276.06s7.3,8.57,8,11.71a25.56,25.56,0,0,1,.11,7.6s23.18,4.21,30.46,4.17,8.38,4.68,9.19,8.14S382.63,331.44,386,336s3.57,6.79,2.66,10a35.55,35.55,0,0,1-2.29,5.84,120.28,120.28,0,0,1-1.77,12.34c-1,4.21-1.49,5-5.42,10.87s-3.88,7.53-5.91,7.34-6.49-5.11-7.57-11.16a8.83,8.83,0,0,1,4.94-10.1c2.37-1.21,8.1-2.21,8.21-4.56s.21-7.67-.93-9.72a46.9,46.9,0,0,1-4-8.68,56.92,56.92,0,0,0-8.21-15.32c-3.76-4.76-7.22-8.26-7.22-8.26s-19.37,6.5-38.78,11.35-21.41,2-22.45-1.07-18.61-15.88-18.61-15.88" style="fill:#F56F17;stroke:#263238;stroke-linecap:round;stroke-linejoin:round"></path><path d="M373.27,382.33c2,.19,2-1.45,5.91-7.34-6.12-3.88-7.51-10.17-7.71-14.28-.3.12-.59.24-.83.36a8.83,8.83,0,0,0-4.94,10.1C366.78,377.22,371.24,382.14,373.27,382.33Z" style="fill:#263238;stroke:#263238;stroke-linecap:round;stroke-linejoin:round"></path><line x1="247.49" y1="111.34" x2="258.44" y2="143.97" style="fill:none;stroke:#263238;stroke-linecap:round;stroke-linejoin:round;stroke-width:2px"></line><polygon points="253.1 127.38 248.8 114.58 253.47 105.89 257.91 119.1 253.1 127.38" style="fill:#F56F17;stroke:#263238;stroke-linecap:round;stroke-linejoin:round"></polygon><polygon points="252.9 127.45 248.6 114.65 239.63 110.53 244.07 123.75 252.9 127.45" style="fill:#F56F17;stroke:#263238;stroke-linecap:round;stroke-linejoin:round"></polygon><line x1="251.85" y1="106.08" x2="262.81" y2="138.71" style="fill:none;stroke:#263238;stroke-linecap:round;stroke-linejoin:round;stroke-width:2px"></line><polygon points="257.47 122.11 253.17 109.31 257.84 100.62 262.27 113.84 257.47 122.11" style="fill:#F56F17;stroke:#263238;stroke-linecap:round;stroke-linejoin:round"></polygon><polygon points="257.26 122.18 252.96 109.38 244 105.27 248.44 118.48 257.26 122.18" style="fill:#F56F17;stroke:#263238;stroke-linecap:round;stroke-linejoin:round"></polygon><line x1="237.51" y1="110.76" x2="248.46" y2="143.39" style="fill:none;stroke:#263238;stroke-linecap:round;stroke-linejoin:round;stroke-width:2px"></line><polygon points="243.13 126.8 238.83 113.99 243.49 105.3 247.93 118.52 243.13 126.8" style="fill:#F56F17;stroke:#263238;stroke-linecap:round;stroke-linejoin:round"></polygon><polygon points="242.92 126.86 238.62 114.06 229.66 109.95 234.09 123.16 242.92 126.86" style="fill:#F56F17;stroke:#263238;stroke-linecap:round;stroke-linejoin:round"></polygon><path d="M272.83,132.56a7.28,7.28,0,0,0-.41-1.19c-2.51-5.53-11.19-7-19.38-3.29s-12.8,11.21-10.29,16.75l33.18,82.9,26-11.79Z" style="fill:#b0b0b0;stroke:#263238;stroke-linecap:round;stroke-linejoin:round"></path><path d="M301.93,215.94c2.2,4.85-6.69,7.76-13.87,11s-9.93,5.62-12.13.77,1.84-11.42,9-14.68S299.74,211.09,301.93,215.94Z" style="fill:#5c5c5c;stroke:#263238;stroke-linecap:round;stroke-linejoin:round"></path><path d="M252,168l3,7.43c2-4.57,9.2-16.68,28.07-13.53l-2.33-6.69C265,153.71,256.34,161.65,252,168Z" style="fill:#263238"></path><path d="M298.47,206l-2.34-6.69c-14.12-1.34-22.55,4.9-27.26,10.76l2.77,6.92C274.81,211.61,282.43,203.3,298.47,206Z" style="fill:#263238"></path><path d="M247.93,157.75l2.95,7.38c2.14-4.75,9.55-16.75,28.71-13.22l-2.36-6.74C261.18,143.41,252.35,151.36,247.93,157.75Z" style="fill:#263238"></path></g></svg>